#!OML:ASF H:\BreakDance\Project 1\Capture day 1\Session 1\Male.ASF
:FULLY-SPECIFIED
:DEGREES
1328
root -7.46178 13.2956 0.839861 -133.004 -85.9362 266.76
lowerback -17.2005 0.459534 -5.84824
upperback -8.15526 1.35487 -5.16978
thorax 0.881531 0.587909 -1.92054
lowerneck -10.57 -1.35948 -3.62748
upperneck 9.66987 -2.07491 6.7927
head 4.74025 -0.730908 2.55053
rclavicle -1.48691e-013 -1.34378e-013
rhumerus 20.9954 4.90419 -77.7325
rradius 68.3388
rwrist -36.3763
rhand -50.4732 100.069
rfingers 7.12502
rthumb -23.0432 848.711
lclavicle -1.48691e-013 -1.34378e-013
lhumerus 33.6472 -18.277 51.8952
lradius 54.7961
lwrist 7.4899
lhand -57.0541 -626.648
lfingers 7.12502
lthumb -29.3431 -65.648
rfemur 0.502554 10.4902 -1.28751
rtibia 45.5482
rfoot -14.5091 3.49516
rtoes -2.02248
lfemur 16.3252 4.23213 -10.4127
ltibia 54.2085
lfoot 16.1834 -17.2992
ltoes -19.7517
1329
root -7.43671 13.417 0.85751 -133.674 -85.506 268.28
lowerback -16.5446 0.689617 -5.30595
upperback -8.10784 1.54829 -5.01782
thorax 0.607139 0.691941 -2.03399
lowerneck -10.4036 -1.27721 -3.42882
upperneck 8.81429 -1.94033 6.67797
head 4.43988 -0.678505 2.48773
rclavicle 1.51871e-013 1.0635e-013
rhumerus 23.031 5.13707 -76.5847
rradius 67.9627
rwrist -36.4538
rhand -50.3145 100.532
rfingers 7.12502
rthumb -22.8909 849.193
lclavicle 1.51871e-013 1.0635e-013
lhumerus 34.736 -17.5957 51.3359
lradius 54.2888
lwrist 8.18868
lhand -57.1361 -626.018
lfingers 7.12502
lthumb -29.4215 -66.2917
rfemur -1.93593 11.6197 -2.43204
rtibia 44.7578
rfoot -16.5485 0.274497
rtoes -8.11918
lfemur 14.4861 4.74087 -10.5493
ltibia 55.0129
lfoot 14.1112 -18.6404
ltoes -20.4903
1330
root -7.42337 13.5379 0.876772 -134.349 -85.1125 269.816
lowerback -15.7101 0.904781 -4.7647
upperback -8.01755 1.72239 -4.84819
thorax 0.284003 0.787722 -2.13769
lowerneck -10.3068 -1.19336 -3.22534
upperneck 7.89051 -1.79917 6.54455
head 4.1313 -0.623928 2.41876
rclavicle 5.64548e-014 8.22969e-014
rhumerus 25.183 5.33443 -75.3183
rradius 67.6287
rwrist -36.5719
rhand -50.0624 101.263
rfingers 7.12502
rthumb -22.649 849.954
lclavicle 5.64548e-014 8.22969e-014
lhumerus 35.8734 -16.8086 50.7079
lradius 53.833
lwrist 8.89753
lhand -57.1773 -625.248
lfingers 7.12502
lthumb -29.4607 -67.0683
rfemur -4.56303 12.1637 -3.80524
rtibia 44.0836
rfoot -17.7371 -2.2201
rtoes -12.1319
lfemur 12.339 5.46541 -10.5367
ltibia 56.1321
lfoot 12.2005 -19.7094
ltoes -21.2761
1331
root -7.42255 13.6577 0.897614 -135.032 -84.7771 271.375
lowerback -14.7209 1.10018 -4.22426
upperback -7.877 1.87548 -4.65823
thorax -0.0698389 0.873569 -2.22983
lowerneck -10.271 -1.11251 -2.99017
upperneck 6.86236 -1.65675 6.34576
head 3.80164 -0.572153 2.32454
rclavicle 1.98785e-013 1.20265e-013
rhumerus 27.477 5.4808 -73.9089
rradius 67.3023
rwrist -36.7584
rhand -49.7763 102.136
rfingers 7.12502
rthumb -22.3743 850.86
lclavicle 1.98785e-013 1.20265e-013
lhumerus 37.0967 -15.9293 49.9863
lradius 53.4133
lwrist 9.68464
lhand -57.164 -624.35
lfingers 7.12502
lthumb -29.4481 -67.9641
rfemur -7.3499 12.0491 -5.30859
rtibia 43.5036
rfoot -18.2784 -3.92829
rtoes -14.9433
lfemur 9.84801 6.39722 -10.3803
ltibia 57.5926
lfoot 10.6016 -20.5881
ltoes -22.4388
1332
root -7.43484 13.7762 0.920135 -135.754 -84.5186 272.992
lowerback -13.5754 1.27254 -3.67531
upperback -7.6857 2.00379 -4.44511
thorax -0.457091 0.946788 -2.31386
lowerneck -10.3024 -1.04159 -2.78786
upperneck 5.43791 -1.49664 5.92682
head 3.72855 -0.540668 2.40153
rclavicle 2.70347e-014 1.39149e-015
rhumerus 29.9359 5.55167 -72.3367
rradius 66.9443
rwrist -37.021
rhand -49.4777 102.962
rfingers 7.12502
rthumb -22.0877 851.72
lclavicle 2.70347e-014 1.39149e-015
lhumerus 38.4372 -14.9682 49.1399
lradius 53.0054
lwrist 10.6045
lhand -57.1091 -623.36
lfingers 7.12502
lthumb -29.3957 -68.9452
rfemur -10.2654 11.256 -6.81829
rtibia 43.0184
rfoot -18.3304 -4.85705
rtoes -17.4052
lfemur 6.99356 7.52629 -10.0931
ltibia 59.4135
lfoot 9.3565 -21.3613
ltoes -24.3694
1333
root -7.46084 13.8931 0.944568 -136.431 -84.3479 274.568
lowerback -12.2741 1.41902 -3.11443
upperback -7.44254 2.10536 -4.21555
thorax -0.878513 1.00537 -2.39925
lowerneck -10.3502 -0.96907 -2.50373
upperneck 4.17401 -1.36487 5.60873
head 3.27827 -0.497731 2.22924
rclavicle 6.32135e-014 2.42517e-014
rhumerus 32.5682 5.50865 -70.5932
rradius 66.5225
rwrist -37.3733
rhand -49.1994 103.567
rfingers 7.12502
rthumb -21.8205 852.356
lclavicle 6.32135e-014 2.42517e-014
lhumerus 39.9124 -13.9242 48.1568
lradius 52.5871
lwrist 11.664
lhand -57.0453 -622.381
lfingers 7.12502
lthumb -29.3347 -69.913
rfemur -13.2789 9.80104 -8.22171
rtibia 42.6585
rfoot -17.9976 -5.10464
rtoes -20.0192
lfemur 3.7713 8.83016 -9.71731
ltibia 61.5984
lfoot 8.4823 -22.1764
ltoes -27.0827
1334
root -7.50099 14.01 0.97125 -137.027 -84.2649 276.043
lowerback -10.8028 1.54128 -2.55507
upperback -7.14476 2.18575 -3.96882
thorax -1.34209 1.05215 -2.47742
lowerneck -10.4214 -0.910099 -2.23822
upperneck 2.76095 -1.25125 5.27132
head 2.79049 -0.468209 2.05499
rclavicle 9.18385e-014 3.49861e-014
rhumerus 35.3634 5.30341 -68.6687
rradius 66.0234
rwrist -37.803
rhand -48.9698 103.869
rfingers 7.12502
rthumb -21.6 852.684
lclavicle 9.18385e-014 3.49861e-014
lhumerus 41.5341 -12.7791 47.0678
lradius 52.1327
lwrist 12.8254
lhand -57.0039 -621.497
lfingers 7.12502
lthumb -29.2952 -70.7905
rfemur -16.3651 7.78045 -9.42346
rtibia 42.4756
rfoot -17.4357 -4.76415
rtoes -23.0804
lfemur 0.189618 10.2876 -9.31081
ltibia 64.1395
lfoot 7.86838 -23.1321
ltoes -30.7313
1335
root -7.55599 14.1278 1.00124 -137.588 -84.272 277.425
lowerback -9.1296 1.6408 -1.99448
upperback -6.7918 2.24773 -3.70549
thorax -1.86722 1.08778 -2.55132
lowerneck -10.5059 -0.868077 -2.01805
upperneck 1.22334 -1.16296 4.96031
head 2.27442 -0.454523 1.89955
rclavicle 1.49884e-013 8.34896e-014
rhumerus 38.3056 4.88789 -66.5983
rradius 65.4327
rwrist -38.253
rhand -48.7513 103.877
rfingers 7.12502
rthumb -21.3901 852.716
lclavicle 1.49884e-013 8.34896e-014
lhumerus 43.2999 -11.5104 45.8964
lradius 51.618
lwrist 14.0413
lhand -57.0062 -620.775
lfingers 7.12502
lthumb -29.2974 -71.5131
rfemur -19.5232 5.35036 -10.3479
rtibia 42.5427
rfoot -16.8 -3.99713
rtoes -26.4199
lfemur -3.72451 11.8783 -8.92693
ltibia 67.0025
lfoot 7.38588 -24.293
ltoes -35.0937
1336
root -7.62606 14.2499 1.03554 -137.996 -84.3965 278.563
lowerback -7.22475 1.71118 -1.41615
upperback -6.39063 2.28286 -3.43446
thorax -2.47991 1.1059 -2.64121
lowerneck -10.5888 -0.842624 -1.81773
upperneck -0.411648 -1.10473 4.68453
head 1.73694 -0.458906 1.76131
rclavicle 6.55989e-014 1.8487e-014
rhumerus 41.3639 4.21619 -64.4564
rradius 64.7358
rwrist -38.6726
rhand -48.5049 103.591
rfingers 7.12502
rthumb -21.1535 852.457
lclavicle 6.55989e-014 1.8487e-014
lhumerus 45.2021 -10.1088 44.6773
lradius 51.0187
lwrist 15.2656
lhand -57.0432 -620.281
lfingers 7.12502
lthumb -29.3327 -72.0127
rfemur -22.7556 2.64396 -10.9565
rtibia 42.9297
rfoot -16.2215 -2.91921
rtoes -29.3016
lfemur -7.96198 13.5523 -8.61205
ltibia 70.1416
lfoot 7.00921 -25.6194
ltoes -39.3126
1337
root -7.71111 14.3801 1.07429 -137.564 -84.6385 278.748
lowerback -5.10017 1.73976 -0.859171
upperback -5.94728 2.27868 -3.18353
thorax -3.18408 1.09943 -2.75333
lowerneck -10.6469 -0.83574 -1.58603
upperneck -2.11227 -1.08545 4.43286
head 1.18418 -0.486892 1.62769
rclavicle 2.57227e-013 8.74653e-014
rhumerus 44.4981 3.25011 -62.3546
rradius 63.9086
rwrist -38.9854
rhand -48.1568 103.068
rfingers 7.12502
rthumb -20.819 851.972
lclavicle 2.57227e-013 8.74653e-014
lhumerus 47.2413 -8.58534 43.4433
lradius 50.2945
lwrist 16.4557
lhand -57.0927 -620.037
lfingers 7.12502
lthumb -29.38 -72.2656
rfemur -26.0778 -0.247198 -11.3063
rtibia 43.6925
rfoot -15.7521 -1.65153
rtoes -31.1554
lfemur -12.5221 15.2434 -8.48038
ltibia 73.4882
lfoot 6.73707 -26.9881
ltoes -42.8777
1338
root -7.81022 14.5213 1.1158 -135.532 -84.9997 277.206
lowerback -2.78994 1.71225 -0.36074
upperback -5.4691 2.21684 -2.96949
thorax -3.97236 1.05905 -2.88055
lowerneck -10.6645 -0.847081 -1.27444
upperneck -3.84347 -1.10941 4.17888
head 0.62406 -0.542582 1.48277
rclavicle 5.1684e-015 1.03368e-014
rhumerus 47.6778 1.99449 -60.4097
rradius 62.9003
rwrist -39.1287
rhand -47.6723 102.382
rfingers 7.12502
rthumb -20.3535 851.335
lclavicle 5.1684e-015 1.03368e-014
lhumerus 49.4195 -6.95866 42.2089
lradius 49.384
lwrist 17.5612
lhand -57.1643 -620.084
lfingers 7.12502
lthumb -29.4483 -72.2306
rfemur -29.5008 -3.22546 -11.46
rtibia 44.8496
rfoot -15.3897 -0.335033
rtoes -31.9155
lfemur -17.4058 16.8946 -8.62472
ltibia 76.9577
lfoot 6.53136 -28.2918
ltoes -45.434
1339
root -7.92046 14.6753 1.15648 -131.342 -85.4605 273.393
lowerback -0.373338 1.62722 0.0583841
upperback -4.97069 2.09344 -2.79107
thorax -4.81714 0.983657 -3.00217
lowerneck -10.6344 -0.868317 -0.873862
upperneck -5.55983 -1.16529 3.91936
head 0.068941 -0.621134 1.3264
rclavicle -1.08536e-013 -4.65156e-014
rhumerus 50.8794 0.496947 -58.6974
rradius 61.6404
rwrist -39.1008
rhand -47.1198 101.483
rfingers 7.12502
rthumb -19.8225 850.493
lclavicle -1.08536e-013 -4.65156e-014
lhumerus 51.7349 -5.25331 40.9779
lradius 48.2173
lwrist 18.5388
lhand -57.2891 -620.48
lfingers 7.12502
lthumb -29.5674 -71.8553
rfemur -33.0609 -6.18419 -11.4499
rtibia 46.3769
rfoot -15.0877 0.802569
rtoes -31.8213
lfemur -22.6241 18.4964 -9.09198
ltibia 80.4613
lfoot 6.27315 -29.4604
ltoes -47.0685
1340
root -8.0363 14.8418 1.19213 -124.887 -85.9829 267.204
lowerback 2.05348 1.50255 0.412046
upperback -4.45911 1.93064 -2.6304
thorax -5.66857 0.885757 -3.09925
lowerneck -10.5614 -0.894631 -0.425013
upperneck -7.2072 -1.23927 3.68989
head -0.464661 -0.714259 1.17907
rclavicle 1.10127e-013 4.45278e-014
rhumerus 54.0985 -1.18707 -57.2612
rradius 60.0442
rwrist -38.9049
rhand -46.5336 100.269
rfingers 7.12502
rthumb -19.2589 849.336
lclavicle 1.10127e-013 4.45278e-014
lhumerus 54.1746 -3.50514 39.739
lradius 46.7362
lwrist 19.3673
lhand -57.4974 -621.204
lfingers 7.12502
lthumb -29.7663 -71.1669
rfemur -36.7757 -8.99138 -11.2658
rtibia 48.2036
rfoot -14.8639 1.65027
rtoes -31.1817
lfemur -28.1323 20.0884 -9.87092
ltibia 83.8969
lfoot 5.83758 -30.4574
ltoes -48.0065
1341
root -8.15147 15.0183 1.21968 -116.161 -86.5355 258.626
lowerback 4.39481 1.361 0.738481
upperback -3.92912 1.75994 -2.46685
thorax -6.46031 0.782334 -3.16675
lowerneck -10.4508 -0.929789 0.035926
upperneck -8.76628 -1.32825 3.51415
head -0.974249 -0.819368 1.05486
rclavicle 5.96354e-014 1.74931e-014
rhumerus 57.3533 -3.00662 -56.138
rradius 58.0304
rwrist -38.5275
rhand -45.9377 98.6526
rfingers 7.12502
rthumb -18.6857 847.775
lclavicle 5.96354e-014 1.74931e-014
lhumerus 56.7176 -1.7417 38.4811
lradius 44.9079
lwrist 20.0246
lhand -57.8196 -622.239
lfingers 7.12502
lthumb -30.0737 -70.1866
rfemur -40.6362 -11.5375 -10.8816
rtibia 50.23
rfoot -14.7479 2.18921
rtoes -30.0842
lfemur -33.86 21.7109 -10.9317
ltibia 87.1629
lfoot 5.29218 -31.285
ltoes -48.4321
